<svg version="1" xmlns="http://www.w3.org/2000/svg" width="402.667" height="402.667" viewBox="0 0 302.000000 302.000000"><path d="M144 .9c-7.8 2-12.9 6.7-75.1 68.9C-.8 139.7.8 137.8.3 150.2c-.5 13.1-2 11.3 69.1 82.4 52.6 52.6 64 63.5 68.6 65.7 10 4.9 19.5 4.3 28.5-1.7 2.8-1.8 33-31.3 67.2-65.5 69.1-69.2 67.6-67.3 67.7-80.1.1-12.9 1.7-11.1-68.8-81.6C163.2.1 163.6.5 151.9.3c-2.9-.1-6.5.2-7.9.6zm13.8 12.6c5.1 2.1 127.4 124.3 130.2 130.1 2.5 5.1 2.5 9.7 0 14.8-1.3 2.7-22.7 24.7-63.7 65.7-34 33.9-63 62.3-64.5 63.3-4.7 2.8-11 3.1-16 .8-3-1.5-22.7-20.6-66.9-64.9C26.4 172.7 14 159.7 13 156.6c-1.9-6-.8-11.9 3.2-16.8 7-8.5 123.4-124.1 126.8-125.9 4.3-2.2 9.9-2.4 14.8-.4z"/><path d="M142.4 118.4c-6.5 1.6-11.1 4.4-16.3 10.1-6.1 6.6-8.4 12.5-8.5 21.5-.1 9.3 2.4 16.5 7.7 22.7 10.2 11.5 27.2 15.1 40.2 8.6 18.3-9.2 24.5-32.1 13.2-48.9-8-11.9-22.2-17.4-36.3-14z"/></svg>